<?xml version="1.0" encoding="UTF-8" standalone="no"?>
<!-- Created with Inkscape (http://www.inkscape.org/) -->

<svg
   xmlns:dc="http://purl.org/dc/elements/1.1/"
   xmlns:cc="http://creativecommons.org/ns#"
   xmlns:rdf="http://www.w3.org/1999/02/22-rdf-syntax-ns#"
   xmlns:svg="http://www.w3.org/2000/svg"
   xmlns="http://www.w3.org/2000/svg"
   xmlns:xlink="http://www.w3.org/1999/xlink"
   xmlns:sodipodi="http://sodipodi.sourceforge.net/DTD/sodipodi-0.dtd"
   xmlns:inkscape="http://www.inkscape.org/namespaces/inkscape"
   width="744.09448819"
   height="1052.3622047"
   id="svg2"
   version="1.1"
   inkscape:version="0.48.3.1 r9886"
   sodipodi:docname="archer.svg"
   inkscape:export-filename="C:\Users\Ruslan\Desktop\archer.png"
   inkscape:export-xdpi="722.05609"
   inkscape:export-ydpi="722.05609">
  <defs
     id="defs4">
    <linearGradient
       id="linearGradient3897">
      <stop
         style="stop-color:#cbe4f4;stop-opacity:1;"
         offset="0"
         id="stop3899" />
      <stop
         style="stop-color:#6faecc;stop-opacity:1;"
         offset="1"
         id="stop3901" />
    </linearGradient>
    <linearGradient
       id="linearGradient3897-9">
      <stop
         style="stop-color:#cbe4f4;stop-opacity:1;"
         offset="0"
         id="stop3899-4" />
      <stop
         style="stop-color:#6faecc;stop-opacity:1;"
         offset="1"
         id="stop3901-8" />
    </linearGradient>
    <radialGradient
       inkscape:collect="always"
       xlink:href="#linearGradient3897"
       id="radialGradient3965"
       gradientUnits="userSpaceOnUse"
       cx="478.05469"
       cy="481.62601"
       fx="478.05469"
       fy="481.62601"
       r="20.197975" />
    <radialGradient
       inkscape:collect="always"
       xlink:href="#linearGradient3897-2"
       id="radialGradient3965-5"
       gradientUnits="userSpaceOnUse"
       cx="478.05469"
       cy="481.62601"
       fx="478.05469"
       fy="481.62601"
       r="20.197975" />
    <linearGradient
       id="linearGradient3897-2">
      <stop
         style="stop-color:#cbe4f4;stop-opacity:1;"
         offset="0"
         id="stop3899-7" />
      <stop
         style="stop-color:#6faecc;stop-opacity:1;"
         offset="1"
         id="stop3901-6" />
    </linearGradient>
  </defs>
  <sodipodi:namedview
     id="base"
     pagecolor="#ffffff"
     bordercolor="#666666"
     borderopacity="1.0"
     inkscape:pageopacity="0.0"
     inkscape:pageshadow="2"
     inkscape:zoom="2.8284274"
     inkscape:cx="325.95405"
     inkscape:cy="742.13593"
     inkscape:document-units="px"
     inkscape:current-layer="svg2"
     showgrid="false"
     inkscape:window-width="1920"
     inkscape:window-height="1018"
     inkscape:window-x="-8"
     inkscape:window-y="-8"
     inkscape:window-maximized="1" />
  <metadata
     id="metadata7">
    <rdf:RDF>
      <cc:Work
         rdf:about="">
        <dc:format>image/svg+xml</dc:format>
        <dc:type
           rdf:resource="http://purl.org/dc/dcmitype/StillImage" />
        <dc:title></dc:title>
      </cc:Work>
    </rdf:RDF>
  </metadata>
  <path
     style="fill:#dcab86;fill-opacity:1;stroke:#000000;stroke-width:1px;stroke-linecap:butt;stroke-linejoin:miter;stroke-opacity:0"
     d="m 139.30003,414.5519 -26.16295,-4.94975 -12.02082,6.36396 -2.121316,25.45584 7.071066,32.52691 3.53554,45.25484 16.97056,36.06244 34.64823,21.2132 11.31371,41.01219 11.3137,45.25484 19.44544,29.69848 -1.06066,89.09545 89.09545,119.50104 101.46982,-84.49926 72.12488,-70.35712 65.40738,-70.71068 -2.82843,-101.11626 19.09188,-0.7071 21.92031,-21.21321 12.72792,-33.94112 7.07107,-99.70205 -7.77817,-11.31371 -31.81981,1.41421 -57.27564,-204.35385 -324.562,9.8995 z"
     id="path3866"
     inkscape:connector-curvature="0"
     sodipodi:nodetypes="cccccccccccccccccccccccccc" />
  <path
     style="fill:#bc9078;stroke:#000000;stroke-width:1px;stroke-linecap:butt;stroke-linejoin:miter;stroke-opacity:0;fill-opacity:1"
     d="m 327.99998,406.86221 c 14,6.75 15,20.5 11.25,30.25 -3.75,9.75 5.75,24.5 0.5,36.75 -5.25,12.25 -1.25,24 -1.25,24 -26.75,23.75 -16.5,42 17.25,49.75 -3.75,3.5 -16,-0.25 -23,2.75 0,0 4.5,3 7.25,6.25 0,0 -13.5,2.75 -20.5,0.5 l -11.25,0.25 -10.49999,-10.5 1,-14.25 15.49999,-19.25 4,-10.75 5.75,-10.25 2.75,-20.75 -3.75,-30.25 8,-23 z"
     id="path3845"
     inkscape:connector-curvature="0" />
  <path
     style="fill:#606060;stroke:#000000;stroke-width:1px;stroke-linecap:butt;stroke-linejoin:miter;stroke-opacity:0;fill-opacity:0.9909091"
     d="m 340.49998,1019.3622 -53.99999,-79.50001 -24,33.5 5.5,46.00001 z"
     id="path3906"
     inkscape:connector-curvature="0" />
  <path
     style="fill:#3c3c3c;stroke:#000000;stroke-width:1px;stroke-linecap:butt;stroke-linejoin:miter;stroke-opacity:0;fill-opacity:0.99090910000000021"
     d="m 288.99999,946.36219 c 0,0 -30,37 -18,75.00001 l -34,-1.5 -7.5,-64.50001 c 0,0 16,-24 23,-26 7,-2 22,-10.5 24,-9 2,1.5 12.5,26 12.5,26 z"
     id="path3887"
     inkscape:connector-curvature="0" />
  <path
     style="fill:#3c3c3c;stroke:#000000;stroke-width:1px;stroke-linecap:butt;stroke-linejoin:miter;stroke-opacity:0;fill-opacity:0.99090910000000021"
     d="m 104.49999,1020.3622 c 0,-2.5 34.5,-120.50001 68,-145.50001 l 3.5,-43.5 -279.49998,152.5 -18.5,35.00001 z"
     id="path3889"
     inkscape:connector-curvature="0" />
  <path
     style="fill:#5a5a5a;fill-opacity:0.99090911;stroke:#5a5a5a;stroke-width:1px;stroke-linecap:butt;stroke-linejoin:miter;stroke-opacity:0"
     d="m 102.99999,1020.8622 c 0,0 35,-122.00001 69,-145.50001 l 0,143.00001 z"
     id="path3893"
     inkscape:connector-curvature="0"
     sodipodi:nodetypes="cccc" />
  <path
     style="fill:#3c3c3c;fill-opacity:0.99090911;stroke:#000000;stroke-width:1px;stroke-linecap:butt;stroke-linejoin:miter;stroke-opacity:0"
     d="m 419.99998,1019.3622 31,-0.5 59.49999,-165.50001 78.5,-137.49999 -23,-29.5 -4,35 -76.99999,134.99999 z"
     id="path3883"
     inkscape:connector-curvature="0"
     sodipodi:nodetypes="cccccccc" />
  <g
     inkscape:groupmode="layer"
     id="layer2"
     inkscape:label="Слой"
     style="display:inline">
    <path
       style="fill:#bc9078;fill-opacity:1;stroke:#000000;stroke-width:1px;stroke-linecap:butt;stroke-linejoin:miter;stroke-opacity:0"
       d="m 177.49999,405.86221 c 0,0 -10,5.5 -4,16 6,10.5 8.25,11.75 23.25,4.5 15,-7.25 37.75,-15.25 37.75,-15.25 l 26.5,-5.25 27.25,2.25 13.25,23.25 c 0,0 -22.25,16.5 -39.75,19.25 0,0 35.25,-2.75 44.49999,-6 9.25,-3.25 15,16.75 15,16.75 0,0 3.75,-25.75 3.5,-24 -0.25,1.75 7.5,-16.25 7.5,-16.25 l -7,-15.75 -12.25,-8.24999 -81.49999,-24.25 -53.25,28.49999 z"
       id="path3839"
       inkscape:connector-curvature="0" />
    <path
       style="fill:#000000;stroke:#000000;stroke-width:1px;stroke-linecap:butt;stroke-linejoin:miter;stroke-opacity:0"
       d="m 321.42857,402.00504 c 0,0 12.14286,17.14286 4.64286,25.71428 -7.5,8.57143 -8.92857,23.57143 -5.71429,37.85715 3.21429,14.28571 5,21.42857 0.35715,30.71428 0,0 12.5,-4.64286 9.28571,-32.5 -2.75377,-23.86598 -2.2799,-15.54555 3.92857,-37.85714 4.85626,-17.45209 -2.78234,-18.12017 -12.5,-23.92857 z"
       id="path3027"
       inkscape:connector-curvature="0"
       sodipodi:nodetypes="csscssc" />
    <path
       style="fill:#000000;fill-opacity:1;stroke:#000000;stroke-width:1px;stroke-linecap:butt;stroke-linejoin:miter;stroke-opacity:0"
       d="m 331.07143,488.43361 c 0,0 -33.57142,18.21429 -14.64285,39.99999 0,0 -5.00001,-18.92855 14.64285,-39.99999 z"
       id="path3797"
       inkscape:connector-curvature="0"
       sodipodi:nodetypes="ccc" />
    <path
       style="fill:#bc9078;fill-opacity:1;stroke:#000000;stroke-width:1px;stroke-linecap:butt;stroke-linejoin:miter;stroke-opacity:0"
       d="m 403.74999,549.6122 c 0,0 12.5,9.25 16.5,16.75 0,0 -2.5,-16.75 -13,-24.5 z"
       id="path3943"
       inkscape:connector-curvature="0" />
    <path
       style="fill:#bc9078;fill-opacity:1;stroke:#000000;stroke-width:1px;stroke-linecap:butt;stroke-linejoin:miter;stroke-opacity:0"
       d="m 295.24999,538.6122 c 0,0 -9,7.25 -11.75,20.75 0,0 8.75,-8.25 16.5,-5.5 z"
       id="path3945"
       inkscape:connector-curvature="0" />
    <path
       style="fill:#bc9078;fill-opacity:1;stroke:#000000;stroke-width:1px;stroke-linecap:butt;stroke-linejoin:miter;stroke-opacity:0"
       d="m 310.99999,646.36219 c 0,0 18.25,5.75 28.25,5.5 10,-0.25 41.75,2 50.75,-2.75 9,-4.75 15.5,-7 15.5,-7 0,0 2.16615,8.85467 -15.25,19 -25.75,15 -51.75,-0.75 -81.75,23.5 0,0 5.75,-16.75 20.25,-21.25 0,0 -10.25,-6 -17.75,-17 z"
       id="path3953"
       inkscape:connector-curvature="0"
       sodipodi:nodetypes="csscsc" />
    <path
       style="fill:#bc9078;fill-opacity:1;stroke:#000000;stroke-width:1px;stroke-linecap:butt;stroke-linejoin:miter;stroke-opacity:0"
       d="m 428.99999,627.11219 c 0,0 4.75,16.25 11.5,7.25 6.75,-9 -0.5,-12 -8.5,-10.25 -8,1.75 -3,3 -3,3 z"
       id="path3957"
       inkscape:connector-curvature="0" />
    <path
       style="fill:#bc9078;fill-opacity:1;stroke:#000000;stroke-width:1px;stroke-linecap:butt;stroke-linejoin:miter;stroke-opacity:0"
       d="m 276.24999,623.86219 c 0,0 -14.5,-3.5 -7.25,9.75 7.25,13.25 14.25,-4.5 11.75,-6.5 -2.5,-2 -4.5,-3.25 -4.5,-3.25 z"
       id="path3959"
       inkscape:connector-curvature="0" />
    <path
       style="fill:#bc9078;fill-opacity:1;stroke:#000000;stroke-width:1px;stroke-linecap:butt;stroke-linejoin:miter;stroke-opacity:0"
       d="m 348.74999,572.86219 c 0,0 -1.5,14 -3,23.25 -1.5,9.25 7.75,8.25 13,6.25 5.25,-2 3.5,-4.25 2.5,-12.75 -1,-8.5 1.1634,-11.1648 -5.25,-7.5 -5.25,3 -4.75,3.5 -7.25,-9.25 z"
       id="path3949"
       inkscape:connector-curvature="0"
       sodipodi:nodetypes="cssssc" />
    <path
       style="fill:#bc9078;fill-opacity:1;stroke:#000000;stroke-width:1px;stroke-linecap:butt;stroke-linejoin:miter;stroke-opacity:0"
       d="m 259.24999,606.36219 c 0,0 -15.25,23.5 -5.5,52.25 -25.75,-19.25 5.5,-52.25 5.5,-52.25 z"
       id="path3951"
       inkscape:connector-curvature="0" />
    <path
       style="fill:#bc9078;fill-opacity:1;stroke:#000000;stroke-width:1px;stroke-linecap:butt;stroke-linejoin:miter;stroke-opacity:0"
       d="m 444.99999,605.61219 c 0,0 14,18.75 6,51.25 23.75,-14.5 -6,-51.25 -6,-51.25 z"
       id="path3955"
       inkscape:connector-curvature="0" />
    <path
       style="fill:#bc9078;fill-opacity:1;stroke:#000000;stroke-width:1px;stroke-linecap:butt;stroke-linejoin:miter;stroke-opacity:0"
       d="m 379.24998,478.36221 c 0,0 5,9.25 2.25,23 l 4.5,8.5 3.5,8.5 8.75,2.75 c -14.75,-19.75 -6.25,-23.5 -19,-42.75 z"
       id="path3851"
       inkscape:connector-curvature="0" />
    <path
       style="fill:#bc9078;fill-opacity:1;stroke:#000000;stroke-width:1px;stroke-linecap:butt;stroke-linejoin:miter;stroke-opacity:0"
       d="m 176.74999,523.61221 c 0,0 21,22.25 28.25,24.25 0,0 -14.5,-1.5 -24.5,-7.75 -10,-6.25 -3.75,-16.5 -3.75,-16.5 z"
       id="path3853"
       inkscape:connector-curvature="0" />
    <path
       style="fill:#bc9078;fill-opacity:1;stroke:#000000;stroke-width:1px;stroke-linecap:butt;stroke-linejoin:miter;stroke-opacity:0"
       d="m 276.47874,257.92775 c 0,0 -14.14214,3.53554 -27.57717,2.12132 -13.43502,-1.41421 -36.76955,3.88909 -41.71929,8.83884 0,0 -2.82843,44.19417 1.06066,59.75052 0,0 -37.47666,31.8198 -26.87006,64.70027 0,0 -18.38478,27.22361 -6.36396,43.84061 0,0 -25.8094,32.52691 0.70711,82.73149 26.5165,50.20458 29.34493,75.66042 37.83021,102.88403 8.48528,27.22361 19.09188,57.27565 37.1231,72.12489 0,0 -0.88388,-10.25305 3.53554,-1.59099 4.41941,8.66206 38.00698,34.29468 44.01739,38.00699 6.01041,3.71231 15.9099,13.43503 38.18376,7.24784 7.42463,-4.41941 1.59099,-14.14213 15.37958,-15.37957 13.78858,-1.23743 13.43502,10.25305 12.55114,12.72792 -0.88388,2.47488 -6.01041,12.72793 6.36396,13.61181 12.37437,0.88388 32.52691,3.35876 50.0278,-3.71231 l -21.72853,14.28079 -94,1 -25.99999,-13 -38.5,-33 -50,-43.5 -22.75,-76.74999 -6.25,-21 -21.25,-5.5 -27.5,-33.5 -13.499995,-114.75 15.499995,-12.75 18.5,11.75 47.25,-205.74999 z"
       id="path3835"
       inkscape:connector-curvature="0" />
    <path
       style="fill:#000000;fill-opacity:1;stroke:#000000;stroke-width:1px;stroke-linecap:butt;stroke-linejoin:miter;stroke-opacity:0;display:inline"
       d="m 311.42857,517.71932 c -14.74036,10.66324 -18.39125,13.55586 -16.81204,27.08276 1.83839,15.74684 10.69856,18.94442 30.02633,12.20296 -16.48115,-1.51358 -23.18132,-3.8501 -23.82958,-14.82094 -0.49867,-8.43932 3.05657,-18.41781 10.61529,-24.46478 z"
       id="path3799"
       inkscape:connector-curvature="0"
       sodipodi:nodetypes="cscsc" />
    <path
       style="fill:#000000;fill-opacity:1;stroke:#000000;stroke-width:1px;stroke-linecap:butt;stroke-linejoin:miter;stroke-opacity:0;display:inline"
       d="m 334.64286,552.71932 c 0,0 -1.42857,-5.53571 -12.50001,-5.17857 -10.76212,0.34717 -9.99999,5.53572 -2.14285,5.53572 3.92857,0 2.32143,-6.96429 14.64286,-0.35715 z"
       id="path3802"
       inkscape:connector-curvature="0"
       sodipodi:nodetypes="cssc" />
    <path
       style="fill:#000000;fill-opacity:1;stroke:#000000;stroke-width:1px;stroke-linecap:butt;stroke-linejoin:miter;stroke-opacity:0"
       d="m 347.85714,559.68361 c 0,0 12.5,8.39286 17.32144,-3.57143 4.21557,-10.46084 12.67856,-10.17857 16.07142,-9.82143 3.39286,0.35715 8.21429,0.89286 7.5,3.75 -0.71428,2.85715 -7.85714,3.03572 -10,1.42857 -2.14286,-1.60714 -7.14286,-1.07142 -9.28571,2.5 -2.14286,3.57143 -3.57143,10.35715 -9.46429,10.71429 -6.95153,0.42131 -10.35714,-1.78571 -12.14286,-5 z"
       id="path3807"
       inkscape:connector-curvature="0"
       sodipodi:nodetypes="cssssssc" />
    <path
       style="fill:#000000;fill-opacity:1;stroke:#000000;stroke-width:1px;stroke-linecap:butt;stroke-linejoin:miter;stroke-opacity:0"
       d="m 384.64286,507.36218 c 0,0 5.71428,10.17857 2.5,22.5 9.28572,-13.92857 -2.5,-22.5 -2.5,-22.5 z"
       id="path3809"
       inkscape:connector-curvature="0" />
    <path
       style="fill:#000000;fill-opacity:1;stroke:#000000;stroke-width:1px;stroke-linecap:butt;stroke-linejoin:miter;stroke-opacity:0"
       d="m 390.53572,517.54075 c 12.60485,8.37505 12.55357,16.47492 10.94473,24.97603 -1.38067,7.29546 -1.53744,14.53054 -23.62331,13.05969 27.244,7.69154 29.77931,-2.79557 30.29483,-14.83175 0.40673,-9.49606 0.56561,-17.72238 -17.61625,-23.20397 z"
       id="path3811"
       inkscape:connector-curvature="0"
       sodipodi:nodetypes="cscsc" />
    <path
       style="fill:#000000;fill-opacity:1;stroke:#000000;stroke-width:1px;stroke-linecap:butt;stroke-linejoin:miter;stroke-opacity:0"
       d="m 166.67517,502.58666 c 9.84898,51.51778 31.56726,27.27412 35.35534,88.89342 -15.65736,-48.23479 -35.10281,-48.73986 -35.35534,-88.89342 z"
       id="path3813"
       inkscape:connector-curvature="0"
       sodipodi:nodetypes="ccc" />
    <path
       style="fill:#000000;fill-opacity:1;stroke:#000000;stroke-width:1px;stroke-linecap:butt;stroke-linejoin:miter;stroke-opacity:0"
       d="m 274.76149,624.56258 c -0.50507,-2.52538 3.03046,-3.03046 4.54569,-2.52538 1.51523,0.50507 0.50508,3.53553 13.38452,2.0203 12.87945,-1.51523 37.05001,-8.14667 39.90102,-8.33376 3.60072,-0.23627 16.1445,4.04062 17.93021,4.04061 1.01015,0 12.37437,-3.03045 16.16244,-4.29314 3.78808,-1.26269 25.50636,10.10152 56.31601,8.33375 0,0 9.34391,-3.28299 9.34391,0 0,3.283 -2.02031,4.04061 -8.08122,3.53554 -14.43793,2.2869 -53.80714,-5.23436 -57.07362,-5.80838 -2.27284,0.25254 -11.86393,3.64669 -16.66752,3.53553 -4.05609,-0.0939 -12.6269,-3.28299 -15.9099,-3.28299 -4.65657,0 -45.42409,5.01 -54.54824,6.31345 -3.53553,0.50508 -5.3033,-3.53553 -5.3033,-3.53553 z"
       id="path3819"
       inkscape:connector-curvature="0"
       sodipodi:nodetypes="cssssscsccsssc" />
    <path
       style="fill:#000000;fill-opacity:1;stroke:#000000;stroke-width:1px;stroke-linecap:butt;stroke-linejoin:miter;stroke-opacity:0"
       d="m 306.83384,640.97756 c 21.89459,10.11279 30.62689,8.20982 48.25192,8.91631 16.9405,0.67905 25.88805,2.52039 49.98541,-7.65362 -13.31327,11.60331 -32.26064,12.72704 -49.74541,12.50954 -18.66693,-0.23221 -35.84331,-2.558 -48.49192,-13.77223 z"
       id="path3821"
       inkscape:connector-curvature="0"
       sodipodi:nodetypes="cscsc" />
    <path
       style="fill:#000000;fill-opacity:1;stroke:#000000;stroke-width:1px;stroke-linecap:butt;stroke-linejoin:miter;stroke-opacity:0"
       d="m 391.68665,682.64635 c 0,0 -43.43656,-12.12183 -71.21575,0.50508 10.35406,-18.43529 56.82108,-14.14214 71.21575,-0.50508 z"
       id="path3823"
       inkscape:connector-curvature="0"
       sodipodi:nodetypes="ccc" />
    <path
       style="fill:#000000;fill-opacity:1;stroke:#000000;stroke-width:1px;stroke-linecap:butt;stroke-linejoin:miter;stroke-opacity:0"
       d="m 527.0471,496.27321 c -11.36423,55.55838 -30.80966,28.78935 -36.61804,90.15611 15.65737,-54.04316 31.31475,-25.00127 36.61804,-90.15611 z"
       id="path3825"
       inkscape:connector-curvature="0"
       sodipodi:nodetypes="cc" />
    <path
       style="fill:#bc9078;fill-opacity:1;stroke:#000000;stroke-width:1px;stroke-linecap:butt;stroke-linejoin:miter;stroke-opacity:0"
       d="m 393.24998,394.61222 c 0,0 -4.75,0.5 -7.25,-2.5 0,0 -4.75,6.99999 0,13.99999 0,0 -8,1.5 -10,6.5 -2,5 -3.25,5 3.5,12 l 1.75,22.5 c 0,0 4.75,-27.5 16,-34.5 0,0 2.75,10 -2,19.25 0,0 11.25,0 20,-22.5 0,0 19.25,-7 51.25,0 32,7 57.99999,1 62.99999,-2.75 0,0 -18.0509,-25.75684 -56.3477,-30.35243 -20.63926,-2.4767 -47.15883,1.19277 -79.90229,18.35244 z"
       id="path3849"
       inkscape:connector-curvature="0"
       sodipodi:nodetypes="cccscccccscsc" />
    <path
       style="fill:#bc9078;fill-opacity:1;stroke:#000000;stroke-width:1px;stroke-linecap:butt;stroke-linejoin:miter;stroke-opacity:0"
       d="m 541.24997,552.11221 c 0,0 3.25,-16 10.25,-16.25 7,-0.25 8,-7.25 8,-7.25 0,0 3,13 -6.25,13.75 -9.25,0.75 -13.5,17 -13.5,17 z"
       id="path3855"
       inkscape:connector-curvature="0" />
    <path
       style="fill:#bc9078;fill-opacity:0.99090911;stroke:#000000;stroke-width:1px;stroke-linecap:butt;stroke-linejoin:miter;stroke-opacity:0"
       d="m 262.69016,735.22481 c 0,0 -1.76777,9.89949 -9.8995,14.14213 -8.13173,4.24264 8.13173,25.45584 6.71752,37.47666 -1.41422,12.02081 17.67766,31.8198 30.05203,3.53553 0,0 -1.76775,13.43503 -6.0104,19.44544 -1.33811,1.89565 -12.51444,17.39315 -26.74135,2.93244 -5.04666,-5.12959 13.91531,25.67873 9.01985,28.09133 -5.96437,2.9394 -19.04806,-10.16412 -19.04806,-10.16412 l -41.36574,-42.77996 3.18198,-91.57032 z"
       id="path3881"
       inkscape:connector-curvature="0"
       sodipodi:nodetypes="csscssscccc" />
    <path
       style="fill:#d5d5d5;fill-opacity:0.99090911;stroke:#000000;stroke-width:1px;stroke-linecap:butt;stroke-linejoin:miter;stroke-opacity:0"
       d="m 174.49999,1018.8622 59,-2 -3,-61.00001 18,-26.5 32,-14 8,-17 -35,-50 -47,-5 -19.5,63.5 z"
       id="path3902"
       inkscape:connector-curvature="0" />
    <path
       style="fill:#5a5a5a;fill-opacity:0.99090911;stroke:#000000;stroke-width:1px;stroke-linecap:butt;stroke-linejoin:miter;stroke-opacity:0"
       d="m 449.99998,1020.3622 60,-167.00001 77.49999,-135.99999 56.5,60 242.99999,117.49999 0.5,123.50001 z"
       id="path3904"
       inkscape:connector-curvature="0"
       sodipodi:nodetypes="ccccccc" />
    <path
       style="fill:#d5d5d5;fill-opacity:0.99090911;stroke:#000000;stroke-width:1px;stroke-linecap:butt;stroke-linejoin:miter;stroke-opacity:0"
       d="m 288.49999,910.86219 252.99998,-244.99999 23,45.5 -87.49999,164.49999 -59.5,142.00001 -57,1 z"
       id="path3900"
       inkscape:connector-curvature="0" />
    <path
       style="fill:#000000;stroke:#000000;stroke-width:1px;stroke-linecap:butt;stroke-linejoin:miter;stroke-opacity:0"
       d="m 147.78531,522.03211 c 0,0 10.96469,38.58009 22.71469,53.33008 l 14.5,72 c 0,0 -0.25,10 17.49999,29.25 8.08502,8.76826 51.5,43.5 51.5,43.5 0,0 6.25,1.75 16,12.75 9.75,11 22,24.5 53.25,23.5 31.25,-1 28.25,-8.25 28.25,-12.75 0,-4.5 -5,-5 -5,-10.75 0,-5.75 14.25,-5.25 14.75,-0.75 0.5,4.5 -5.75,6.5 -5.25,12 0.5,5.5 3.25,13.25 22.75,12.5 19.5,-0.75 47.75,-10 57.25,-27.75 9.5,-17.75 23.5,-2 62,-64.5 11.68875,-18.97524 15.8755,-40.44451 19.13393,-53.42775 3.01183,-12.00067 4.11607,-37.57225 4.11607,-37.57225 0,0 13.25,-15.74999 20.5,-53.24999 0,0 3.75,34.75 -7.5,52.5 l -12,66.74999 c 0,0 -8.75,39 -35.25,60 0,0 -37.5,34.25 -47,39 0,0 -11.5,33.75 -82.5,30.25 -71,-3.5 -55,3 -87.5,-24 0,0 -49.75,-35.75 -58.25,-42.25 l -14.25,-18 c 0,0 -16.99999,-8.25 -21.99999,-27 -5,-18.75 -2.5,-3 -17,-77.25 l -2.75,-7.99999 c 0,0 -5.92938,-18.16018 -7.96469,-50.08009 z"
       id="path3026"
       inkscape:connector-curvature="0"
       sodipodi:nodetypes="cccscsssssssssscc" />
    <path
       style="fill:#000000;stroke:#000000;stroke-width:1px;stroke-linecap:butt;stroke-linejoin:miter;stroke-opacity:0"
       d="m 159.45257,567.28694 c -13.43502,1.06066 -47.02258,-17.67767 -48.08325,-82.73149 -0.27934,-17.13294 -5.34975,-28.8987 -5.93734,-38.15639 -1.45948,-22.99479 -0.70318,-29.28058 7.7051,-31.49362 0,0 14.90543,0.11232 20.85965,17.32411 0.77538,2.24138 1.41422,26.16295 17.32411,45.96194 0,0 -7.42461,-37.47666 -0.35355,-72.47844 l -20.85965,3.88909 c 0,0 -35.00178,-25.8094 -35.708887,17.32411 -0.707107,43.13351 3.889087,23.68808 7.778177,74.24621 3.88908,50.55813 35.00178,83.08505 57.98275,79.19596 z"
       id="path3798"
       inkscape:connector-curvature="0"
       sodipodi:nodetypes="csscsc" />
    <path
       style="fill:#000000;stroke:#000000;stroke-width:1px;stroke-linecap:butt;stroke-linejoin:miter;stroke-opacity:0"
       d="m 142.65879,490.03553 c 0,0 -3.88909,11.31371 1.59099,28.8146 0,0 -12.55114,-12.72792 -1.59099,-28.8146 z"
       id="path3800"
       inkscape:connector-curvature="0" />
    <path
       style="fill:#000000;stroke:#000000;stroke-width:1px;stroke-linecap:butt;stroke-linejoin:miter;stroke-opacity:0"
       d="m 126.92566,514.07716 c 0,0 3.35876,-8.83884 -2.12132,-14.14214 -5.48007,-5.3033 -7.07106,-29.34493 -3.0052,-39.24442 4.06586,-9.8995 -1.23744,-18.208 19.79899,15.73312 0,0 9.01561,6.71752 -14.14214,-30.22881 0,0 -6.36396,-18.03122 -16.26345,-14.49569 0,0 -5.48008,2.65165 2.12132,3.53554 7.6014,0.88388 6.01041,11.49048 4.06586,15.9099 -1.94454,4.41941 -4.77297,15.20279 -3.0052,33.05724 1.76776,17.85444 7.95495,13.6118 9.19239,24.57196 1.23743,10.96015 3.35875,5.3033 3.35875,5.3033 z"
       id="path3803"
       inkscape:connector-curvature="0"
       sodipodi:nodetypes="csscccssssc" />
    <path
       style="fill:#bc9078;fill-opacity:1;stroke:#000000;stroke-width:1px;stroke-linecap:butt;stroke-linejoin:miter;stroke-opacity:0"
       d="m 547.49997,517.11221 c 0,0 14.25,-9 15.5,-29.25 1.25,-20.25 -10.75,-14.75 -13,-8.25 -2.25,6.5 -2.25,14.25 -1.75,17.75 0.5,3.5 4.25,3.5 1.75,11.75 -2.5,8.25 -2.5,8 -2.5,8 z"
       id="path3860"
       inkscape:connector-curvature="0" />
    <path
       style="fill:#bc9078;fill-opacity:1;stroke:#000000;stroke-width:1px;stroke-linecap:butt;stroke-linejoin:miter;stroke-opacity:0"
       d="m 470.99998,233.86222 c 0,0 23.75,14.75 35.99999,54.5 0,0 11.25001,-66.75 -35.99999,-54.5 z"
       id="path3862"
       inkscape:connector-curvature="0" />
    <path
       style="fill:#000000;stroke:#000000;stroke-width:1px;stroke-linecap:butt;stroke-linejoin:miter;stroke-opacity:0;display:inline"
       d="m 562.62819,513.80114 c 0,0 -3.35876,-8.83884 2.12132,-14.14214 5.48007,-5.3033 7.07106,-29.34493 3.0052,-39.24442 -4.06586,-9.8995 1.23744,-18.208 -19.79899,15.73312 0,0 -9.01561,6.71752 14.14214,-30.22881 0,0 6.36396,-18.03122 16.26345,-14.49569 0,0 5.48008,2.65165 -2.12132,3.53554 -7.6014,0.88388 -6.01041,11.49048 -4.06586,15.9099 1.94454,4.41941 4.77297,15.20279 3.0052,33.05724 -1.76776,17.85444 -7.95495,13.6118 -9.19239,24.57196 -1.23743,10.96015 -3.35875,5.3033 -3.35875,5.3033 z"
       id="path3803-2"
       inkscape:connector-curvature="0"
       sodipodi:nodetypes="csscccssssc" />
    <path
       style="fill:#000000;fill-opacity:1;stroke:#000000;stroke-width:1px;stroke-linecap:butt;stroke-linejoin:miter;stroke-opacity:0"
       d="m 546.49999,489.3622 c 0,0 6.25,16 -2.5,33 17,-16.5 2.5,-33 2.5,-33 z"
       id="path3939"
       inkscape:connector-curvature="0"
       sodipodi:nodetypes="ccc" />
    <path
       style="fill:#bc9078;fill-opacity:1;stroke:#000000;stroke-width:1px;stroke-linecap:butt;stroke-linejoin:miter;stroke-opacity:0"
       d="m 343.49998,400.61221 c 0,0 8.25,0.75 10.75,-4.74999 l 0.75,-5.25 c 0,0 6.75,14.24999 21,8.99999 0,0 -9.5,7.25 -17,1.75 -7.5,-5.49999 -3.25,-2 -3.25,-2 0,0 0.25,3.75 -12.25,1.25 z"
       id="path3847"
       inkscape:connector-curvature="0" />
    <path
       style="fill:#000000;fill-opacity:1;stroke:#000000;stroke-width:1px;stroke-linecap:butt;stroke-linejoin:miter;stroke-opacity:0"
       d="m 355.24999,383.1122 c 0,0 -0.5,11 4.75,19 -11.75,-3 -4.75,-19 -4.75,-19 z"
       id="path3941"
       inkscape:connector-curvature="0" />
    <path
       style="fill:#bc9078;fill-opacity:1;stroke:#000000;stroke-width:1px;stroke-linecap:butt;stroke-linejoin:miter;stroke-opacity:0"
       d="m 286.02468,330.75975 c 0,0 47.37615,1.41421 64.70027,9.54594 0,0 25.80939,-9.54594 46.31549,-9.8995 0,0 -32.52691,-5.65685 -45.96194,2.47488 0,0 -26.16295,-9.19239 -65.05382,-2.12132 z"
       id="path3065"
       inkscape:connector-curvature="0" />
    <path
       style="fill:#969696;fill-opacity:0.99090911;stroke:#000000;stroke-width:1px;stroke-linecap:butt;stroke-linejoin:miter;stroke-opacity:0"
       d="m 184.99999,1018.8622 c 0,0 12,-131.00001 22,-155.00001 10,-24 49,4.5 49,4.5 l 4.5,-5 -68,-94.49999 -9,26 -9,224.5 z"
       id="path3896"
       inkscape:connector-curvature="0" />
    <path
       style="fill:#969696;fill-opacity:0.99090911;stroke:#000000;stroke-width:1px;stroke-linecap:butt;stroke-linejoin:miter;stroke-opacity:0"
       d="m 322.49998,886.36219 c 0,0 -14.5,26 -16.5,41 l 61,91.00001 -20.5,0.5 -67.49999,-103.50001 z"
       id="path3898"
       inkscape:connector-curvature="0" />
    <path
       style="fill:#000000;fill-opacity:0.99090911;stroke:#000000;stroke-width:1px;stroke-linecap:butt;stroke-linejoin:miter;stroke-opacity:0"
       d="m 179.95867,1020.1888 c 0,0 6.0104,-221.67794 14.84924,-238.29495 8.83883,-16.61701 6.71751,-31.46625 6.71751,-31.46625 0,0 -24.39518,4.94975 -26.87005,61.51829 l -12.72793,18.03122 c 0,0 -260.568831,139.30003 -267.99345,140.36069 -7.42462,1.06066 -30.05204,42.4264 -31.1127,48.0833 -1.06066,5.6568 22.62742,0.3535 22.62742,0.3535 0,0 11.31371,-25.45583 19.798986,-30.40558 8.485281,-4.94975 218.142434,-119.85459 218.142434,-119.85459 0,0 -31.819806,25.80939 -36.769554,27.57716 -4.949747,1.76777 -6.717514,16.26346 4.949748,46.66905 l -82.7314897,31.46625 0.3535534,43.48711 19.0918823,-0.3536 -2.474874,-28.99138 109.247994,-61.87184 -26.87006,9.19239 c 0,0 -8.13173,-18.03122 -8.838832,-27.22361 0,0 51.265242,-37.83021 71.417782,-66.82159 l -2.47487,57.98276 c 0,0 -32.52691,61.16473 -40.65864,117.37967 l 16.97056,1.0607 c 0,0 10.6066,-63.28605 22.62742,-80.96372 l 0,82.02442 z"
       id="path3871"
       inkscape:connector-curvature="0" />
    <path
       style="fill:#000000;fill-opacity:0.99090911;stroke:#000000;stroke-width:1px;stroke-linecap:butt;stroke-linejoin:miter;stroke-opacity:0"
       d="m 540.22955,577.18645 -1.22958,65.17575 c 0,0 14.5,21.5 16.5,31.5 0,0 18.5,-7 39.5,20.5 21,27.5 61,79.5 61,79.5 l 229.99999,108.49999 -0.5,22 L 666.49997,800.3622 c 0,0 -15.5,61.99999 -12,86.99999 l -63.5,35 53,35 0,8.5 -36,53.00001 -26,-0.5 37.5,-53.00001 c 0,0 -66.5,-42.5 -87,-85 l 42.5,32 63,-32 c 0,0 -2.5,-35.5 12,-81.99999 l -81.5,-104 c 0,0 8,11.5 -3,34 -11,22.5 -74.49999,144.99999 -74.49999,144.99999 l -60.5,145.00001 -25,-1 63.5,-152.00001 87.49999,-157.49999 -16.5,-37 c 0,0 -29.5,50.5 -58.49999,69.5 l -177,164.49999 c 0,0 -6.49999,10 -16.49999,15 l 65.99999,99.00001 -17,0 -6,-12 -3.5,11 -17,0.5 c 0,0 10,-14.5 11,-24.50001 0,0 -46.99999,-56 -48.99999,-67.5 0,0 -23.5,9.5 -31,26 -7.5,16.5 1,65.50001 1,65.50001 l -17.5,0 c 0,0 -4,-15 -1.5,-31.00001 l -16,31.00001 -10,-0.5 18,-48.50001 c 0,0 15,-50 56,-55 8,-6.5 1.5,-5.5 10.5,-9.5 l -52.5,-74 c 0,0 -33,-34.49999 -34.5,-46.49999 -1.5,-12 3.5,-21.5 3.5,-21.5 0,0 -2.5,-67 -7.5,-86.5 l 21.5,25 26,83.5 30.5,45.49999 -42.5,-45.49999 -17,-47.5 0,40 15.5,25 c 0,0 15,12.99999 68.5,89.49999 0,0 218.49998,-189.99999 229.99998,-218.99999 l -2.5,-36 7.5,-56.99999 z"
       id="path3868"
       inkscape:connector-curvature="0" />
    <path
       style="fill:#000000;fill-opacity:0.99090911;stroke:#000000;stroke-width:1px;stroke-linecap:butt;stroke-linejoin:miter;stroke-opacity:0"
       d="m 108.54089,1017.0068 c 0,0 22.98096,-75.30682 44.19417,-119.14744 0,0 -43.13351,77.78174 -54.447222,119.85464 z"
       id="path3873"
       inkscape:connector-curvature="0" />
  </g>
  <path
     style="fill:#3c3c3c;stroke:#000000;stroke-width:1px;stroke-linecap:butt;stroke-linejoin:miter;stroke-opacity:0;fill-opacity:0.9909091"
     d="m 487.49998,911.36219 c 0,0 51.49999,27.5 46.99999,95.50001 0,0 11,-29.00001 34,-45.50001 0,0 -38.99999,-33.5 -80.99999,-50 z"
     id="path3885"
     inkscape:connector-curvature="0" />
  <g
     inkscape:groupmode="layer"
     id="layer1"
     inkscape:label="Слой#1"
     style="display:inline">
    <path
       style="fill:#ffffff;fill-opacity:1;stroke:#000000;stroke-width:1px;stroke-linecap:butt;stroke-linejoin:miter;stroke-opacity:0;display:inline"
       d="m 288.31219,408.08006 c 0,0 1.26269,7.57614 12.37437,18.68782 0,0 -35.1028,20.96067 -77.27667,-1.51523 0,0 20.70812,-25.50635 64.9023,-17.17259 z"
       id="path3831-4"
       inkscape:connector-curvature="0" />
    <path
       sodipodi:type="arc"
       style="fill:#000000;fill-opacity:1;stroke:#000000;stroke-opacity:0;display:inline"
       id="path3837-2"
       sodipodi:cx="478.05469"
       sodipodi:cy="481.62601"
       sodipodi:rx="19.697975"
       sodipodi:ry="19.697975"
       d="m 497.75266,481.62601 a 19.697975,19.697975 0 1 1 -39.39595,0 19.697975,19.697975 0 1 1 39.39595,0 z"
       transform="matrix(-1,0,0,1,741.61815,-64.959634)" />
    <path
       sodipodi:type="arc"
       style="fill:url(#radialGradient3965-5);fill-opacity:1;stroke:#000000;stroke-opacity:0;display:inline"
       id="path3837-4-3"
       sodipodi:cx="478.05469"
       sodipodi:cy="481.62601"
       sodipodi:rx="19.697975"
       sodipodi:ry="19.697975"
       d="m 497.75266,481.62601 a 19.697975,19.697975 0 1 1 -39.39595,0 19.697975,19.697975 0 1 1 39.39595,0 z"
       transform="matrix(-0.79369817,0,0,0.79369817,643.12085,34.526949)" />
    <path
       sodipodi:nodetypes="ccsc"
       style="fill:#c09179;fill-opacity:1;stroke:#000000;stroke-width:1px;stroke-linecap:butt;stroke-linejoin:miter;stroke-opacity:0;display:inline"
       d="m 283.76651,406.81737 c 0,0 -22.98097,-3.283 -40.65864,4.04061 0,0 6.35372,-15.58458 19.22634,-15.86247 5.81072,-0.12544 12.94976,2.86806 21.4323,11.82186 z"
       id="path3895-2"
       inkscape:connector-curvature="0" />
    <path
       style="fill:#000000;fill-opacity:1;stroke:#000000;stroke-width:1px;stroke-linecap:butt;stroke-linejoin:miter;stroke-opacity:0;display:inline"
       d="m 201.94415,434.34403 c 15.40483,-4.29316 12.12183,-8.83884 28.53681,-19.1929 0,0 -8.5863,0.75761 -17.67767,5.05076 0,0 25.50635,-15.9099 53.53808,-16.66752 28.03174,-0.75761 38.3858,4.54569 38.63834,14.39468 0,0 -2.02031,-7.32361 -10.35406,-7.07107 0,0 1.76776,13.13198 17.9302,21.71828 0,0 -10.6066,3.28299 -27.27412,-21.71828 0,0 -22.22335,-6.06092 -44.44671,4.29315 -22.22335,10.35406 -19.95051,20.96067 -38.89087,19.1929 z"
       id="path3829-1"
       inkscape:connector-curvature="0"
       sodipodi:nodetypes="cc" />
    <path
       transform="matrix(-0.34983665,0,0,0.34983665,431.56212,248.681)"
       d="m 497.75266,481.62601 a 19.697975,19.697975 0 1 1 -39.39595,0 19.697975,19.697975 0 1 1 39.39595,0 z"
       sodipodi:ry="19.697975"
       sodipodi:rx="19.697975"
       sodipodi:cy="481.62601"
       sodipodi:cx="478.05469"
       id="path3857-6"
       style="fill:#000000;fill-opacity:1;stroke:#000000;stroke-opacity:0;display:inline"
       sodipodi:type="arc" />
    <path
       transform="matrix(-0.22480524,0,0,0.22480524,376.97428,306.88415)"
       d="m 497.75266,481.62601 a 19.697975,19.697975 0 1 1 -39.39595,0 19.697975,19.697975 0 1 1 39.39595,0 z"
       sodipodi:ry="19.697975"
       sodipodi:rx="19.697975"
       sodipodi:cy="481.62601"
       sodipodi:cx="478.05469"
       id="path3857-7-8"
       style="fill:#ffffff;fill-opacity:1;stroke:#000000;stroke-opacity:0;display:inline"
       sodipodi:type="arc" />
    <path
       style="fill:#000000;fill-opacity:1;stroke:#000000;stroke-width:1px;stroke-linecap:butt;stroke-linejoin:miter;stroke-opacity:0;display:inline"
       d="m 276.49999,445.36221 c 7.5,-0.5 9.25,-9.75 26.5,-9 -10.5,-0.25 -12.5,9 -26.5,9 z"
       id="path3841"
       inkscape:connector-curvature="0"
       sodipodi:nodetypes="ccc" />
    <path
       style="fill:#000000;fill-opacity:1;stroke:#000000;stroke-width:1px;stroke-linecap:butt;stroke-linejoin:miter;stroke-opacity:0"
       d="m 219.73341,427.10307 c 0,0 21.06214,9.73926 43.47301,10.88219 11.07494,0.56481 22.47925,-0.96969 31.83386,-6.81632 0,0 7.77817,5.65685 15.9099,1.06066 l -13.61181,-7.77818 c 0,0 -9.36069,9.62561 -33.57459,8.40466 -10.04523,-0.50652 -22.64676,-2.87977 -38.19674,-8.58143 z"
       id="path3109"
       inkscape:connector-curvature="0"
       sodipodi:nodetypes="cscccscc" />
    <path
       sodipodi:type="arc"
       style="fill:#000000;fill-opacity:1;stroke:#000000;stroke-opacity:0;display:inline"
       id="path3837-1"
       sodipodi:cx="478.05469"
       sodipodi:cy="481.62601"
       sodipodi:rx="19.697975"
       sodipodi:ry="19.697975"
       d="m 497.75266,481.62601 a 19.697975,19.697975 0 1 1 -39.39595,0 19.697975,19.697975 0 1 1 39.39595,0 z"
       transform="matrix(0.34983665,0,0,0.34983665,274.44815,248.23326)" />
    <path
       style="fill:#ffffff;fill-opacity:1;stroke:#000000;stroke-width:1px;stroke-linecap:butt;stroke-linejoin:miter;stroke-opacity:0;display:inline"
       d="m 417.69808,407.63232 c 0,0 -1.26269,7.57614 -12.37437,18.68782 0,0 35.1028,20.96067 77.27667,-1.51523 0,0 -20.70812,-25.50635 -64.9023,-17.17259 z"
       id="path3831"
       inkscape:connector-curvature="0" />
    <path
       sodipodi:type="arc"
       style="fill:#000000;fill-opacity:1;stroke:#000000;stroke-opacity:0;display:inline"
       id="path3837"
       sodipodi:cx="478.05469"
       sodipodi:cy="481.62601"
       sodipodi:rx="19.697975"
       sodipodi:ry="19.697975"
       d="m 497.75266,481.62601 a 19.697975,19.697975 0 1 1 -39.39595,0 19.697975,19.697975 0 1 1 39.39595,0 z"
       transform="translate(-35.607877,-65.407377)" />
    <path
       sodipodi:type="arc"
       style="fill:url(#radialGradient3965);fill-opacity:1;stroke:#000000;stroke-opacity:0;display:inline"
       id="path3837-4"
       sodipodi:cx="478.05469"
       sodipodi:cy="481.62601"
       sodipodi:rx="19.697975"
       sodipodi:ry="19.697975"
       d="m 497.75266,481.62601 a 19.697975,19.697975 0 1 1 -39.39595,0 19.697975,19.697975 0 1 1 39.39595,0 z"
       transform="matrix(0.79369817,0,0,0.79369817,62.889416,34.079206)" />
    <path
       style="fill:#c09179;fill-opacity:1;stroke:#000000;stroke-width:1px;stroke-linecap:butt;stroke-linejoin:miter;stroke-opacity:0;display:inline"
       d="m 422.24376,406.36963 c 0,0 22.98097,-3.283 40.65864,4.04061 0,0 -5.97844,-14.6641 -18.0861,-15.79703 -6.00857,-0.56223 -13.5266,2.20793 -22.57254,11.75642 z"
       id="path3895"
       inkscape:connector-curvature="0"
       sodipodi:nodetypes="ccsc" />
    <path
       style="fill:#000000;fill-opacity:1;stroke:#000000;stroke-width:1px;stroke-linecap:butt;stroke-linejoin:miter;stroke-opacity:0;display:inline"
       d="m 395.47472,432.38106 c 0,0 8.33376,3.78807 15.65737,-1.51523 0,0 22.22335,17.42513 73.74113,-3.03046 0.50508,-0.75761 -4.04061,-4.54569 -4.04061,-4.54569 0,0 -16.01694,7.37144 -34.88483,8.9483 -12.56275,1.04992 -26.38939,-0.46905 -37.59361,-8.44322 0,0 -1.76778,3.03046 -12.87945,8.5863 z"
       id="path3827"
       inkscape:connector-curvature="0"
       sodipodi:nodetypes="ccccscc" />
    <path
       style="fill:#000000;fill-opacity:1;stroke:#000000;stroke-width:1px;stroke-linecap:butt;stroke-linejoin:miter;stroke-opacity:0;display:inline"
       d="m 504.06612,433.89629 c -15.40483,-4.29316 -12.12183,-8.83884 -28.53681,-19.1929 0,0 8.5863,0.75761 17.67767,5.05076 0,0 -25.50635,-15.9099 -53.53808,-16.66752 -28.03174,-0.75761 -38.3858,4.54569 -38.63834,14.39468 0,0 2.02031,-7.32361 10.35406,-7.07107 0,0 -1.76776,13.13198 -17.9302,21.71828 0,0 10.6066,3.28299 27.27412,-21.71828 0,0 22.22335,-6.06092 44.44671,4.29315 22.22335,10.35406 19.95051,20.96067 38.89087,19.1929 z"
       id="path3829"
       inkscape:connector-curvature="0"
       sodipodi:nodetypes="cc" />
    <path
       transform="matrix(0.34983665,0,0,0.34983665,274.44815,248.23326)"
       d="m 497.75266,481.62601 a 19.697975,19.697975 0 1 1 -39.39595,0 19.697975,19.697975 0 1 1 39.39595,0 z"
       sodipodi:ry="19.697975"
       sodipodi:rx="19.697975"
       sodipodi:cy="481.62601"
       sodipodi:cx="478.05469"
       id="path3857"
       style="fill:#000000;fill-opacity:1;stroke:#000000;stroke-opacity:0;display:inline"
       sodipodi:type="arc" />
    <path
       transform="matrix(0.22480524,0,0,0.22480524,340.78599,306.93641)"
       d="m 497.75266,481.62601 a 19.697975,19.697975 0 1 1 -39.39595,0 19.697975,19.697975 0 1 1 39.39595,0 z"
       sodipodi:ry="19.697975"
       sodipodi:rx="19.697975"
       sodipodi:cy="481.62601"
       sodipodi:cx="478.05469"
       id="path3857-7"
       style="fill:#ffffff;fill-opacity:1;stroke:#000000;stroke-opacity:0;display:inline"
       sodipodi:type="arc" />
    <path
       style="fill:#000000;fill-opacity:1;stroke:#000000;stroke-width:1px;stroke-linecap:butt;stroke-linejoin:miter;stroke-opacity:0;display:inline"
       d="m 397.74998,439.36221 c 12.25,-1 19.5,4.75 30.25,6.5 -15.5,0.25 -20,-6 -30.25,-6.5 z"
       id="path3843"
       inkscape:connector-curvature="0"
       sodipodi:nodetypes="ccc" />
  </g>
  <path
     sodipodi:nodetypes="cccscscccsc"
     inkscape:connector-curvature="0"
     id="path3899"
     d="m 169.25,412.3622 c 43.49999,-28 60.99999,-37 125.99999,-10 0,0 29.5,17.25 19,-23 -4.25,5.5 -5.25,5.75 -6.25,4.5 -1,-1.25 -0.5,-7 -7,-9.75 0,0 1.25,8.5 -7,1.75 -8.25,-6.75 -30.25,-9.5 -61.5,-15.25 l -0.75,4 c 0,0 -17,-0.75 -44.99999,18.75 0,0 10.99999,0.5 -3.5,8.5 -10.52971,5.8095 -14,20.5 -14,20.5 z"
     style="fill:#000000;fill-opacity:1;stroke:#000000;stroke-width:1px;stroke-linecap:butt;stroke-linejoin:miter;stroke-opacity:0" />
  <path
     sodipodi:nodetypes="cccscscccsc"
     inkscape:connector-curvature="0"
     id="path3899-5"
     d="m 534.97997,412.16642 c -42.10035,-29.28184 -59.10378,-38.79853 -124.03422,-13.74439 0,0 -29.61517,16.36466 -18.07234,-23.55512 4.03206,5.62402 5.01145,5.90366 6.0349,4.68397 1.02344,-1.2197 0.69896,-6.98203 7.19347,-9.53742 0,0 -1.48307,8.45905 6.8557,1.95749 8.33878,-6.50155 30.1276,-8.59578 61.13178,-13.41347 l 0.62256,4.02054 c 0,0 16.79644,-0.24387 43.85213,20.08057 0,0 -10.61871,-1.0775 3.4539,7.35037 10.21934,6.12021 12.96212,22.15746 12.96212,22.15746 z"
     style="fill:#000000;fill-opacity:1;stroke:#000000;stroke-width:0.99356258px;stroke-linecap:butt;stroke-linejoin:miter;stroke-opacity:0;display:inline" />
  <path
     sodipodi:nodetypes="csssccsssssccc"
     inkscape:connector-curvature="0"
     id="path3919"
     d="m 571.99999,403.1122 c 0,0 20.74999,-14.75 21.24999,26.25 0.5,41 -3,44 -5.5,78.25 -2.5,34.25 -33.49999,78.99999 -48.49999,73.99999 -15,-5 -11,-4.5 -11,-4.5 l 6.25,-9.99999 c 0,0 6.75,10.49999 23.25,-11.75 16.5,-22.25 16.25,-30.5 19.25,-44.25 1.87167,-8.57851 2.82999,-27.18036 4.16984,-41.53083 0.80771,-8.65108 2.70895,-16.87054 2.33015,-24.46917 -0.47561,-9.54064 5.5,-33.25 -9.99999,-31.5 -15.5,1.75 -18.5,29.5 -18.5,29.5 l 5.5,-40 z"
     style="fill:#000000;fill-opacity:1;stroke:#000000;stroke-width:1px;stroke-linecap:butt;stroke-linejoin:miter;stroke-opacity:0" />
  <path
     style="fill:#000000;fill-opacity:1;stroke:#000000;stroke-width:1px;stroke-linecap:butt;stroke-linejoin:miter;stroke-opacity:1"
     d="m 150.5,407.1122 c 0,0 12,-57.75 30.25,-80.75 0,0 -1.00748,-9.50691 0,-42.25 0.5,-16.25 13.74999,-9 2,-28.75 0,0 15.49999,-14 57.49999,-3.5 42,10.5 51.5,6 51.5,6 0,0 39.939,28.76557 86.75,-4.75 42.25,-30.25 65.75,-21.5 73.5,-21.5 0,0 18.5,-10.25 32.25,-28.25 0,0 -2.25,11 -11.25,19.25 l -2.25,12.25 c 0,0 31.75,-5.5 34,36.75 2.25,42.25 3.75,53.75 3.75,53.75 0,0 11.5,21 20.25,32.5 l 0,15.75 c 0,0 5.5,17.75 12,30.75 0,0 5,63.75 -4.25,75.75 0,0 23.25,-27.5 24,-69.75 0,0 21.36932,8.56789 23.49999,-48.25 2.25,-60 2.81296,-77.52321 2.5,-87.75 -0.26808,-8.76017 3.25,-2 2.25,-23 -1,-21 -4,-69.24999 -36.49999,-84.24999 0,0 -8.75,-7 -26,-9 0,0 -3.5,-4.75 -9.25,-4.5 0,0 -34,-59.250003 -102.5,-68.250002 -68.5,-9 -118.75,-6 -145.5,9.249999 0,0 -46,12.500003 -65,27.250003 -18.99999,14.75 -35.74999,29.75 -42.24999,38 -6.5,8.25 -36.5,23 -44,74.49999 -7.5,51.5 6,173.75 6,173.75 l 9.24502,6.11701 z"
     id="path3805"
     inkscape:connector-curvature="0"
     sodipodi:nodetypes="ccscscsccccsccccccssscccscsssccc" />
  <path
     style="fill:#374559;fill-opacity:1;stroke:#000000;stroke-width:1px;stroke-linecap:butt;stroke-linejoin:miter;stroke-opacity:0"
     d="m 297.74999,213.8622 c 0,0 51.75,5.25 70.25,37 -2.75,-26.75 6.5,-28.25 -70.25,-37 z"
     id="path3808"
     inkscape:connector-curvature="0" />
  <path
     style="fill:#374559;fill-opacity:1;stroke:#374559;stroke-width:1px;stroke-linecap:butt;stroke-linejoin:miter;stroke-opacity:0"
     d="m 339.99999,198.1122 c 0,0 54.75,-0.75 70.5,10.25 10.65993,7.44503 21.5,16 -6.25,10 0,0 11,3.75 11.5,12.5 0,0 12.75,-5.25 18.25,-3.25 0,0 -0.5,-4 -3.5,-4 0,0 2.25,-49 -90.5,-25.5 z"
     id="path3810"
     inkscape:connector-curvature="0"
     sodipodi:nodetypes="csccccc" />
  <path
     style="fill:#374559;fill-opacity:1;stroke:#374559;stroke-width:1px;stroke-linecap:butt;stroke-linejoin:miter;stroke-opacity:0"
     d="m 411.99999,186.1122 c 41.75,-8.24999 55.25,16.25 36.75,37.25 0,0 31,-5.25 38.5,-39.24999 14,5.74999 7.25,-14.5 8,-30 10.25,8.75 14,-4.75 -11,-24.75 0,0 -2.75,0.5 -1.75,3 0,0 -15.5,-16 -47.5,-26.5 0,0 34,17 50,35.75 0,0 -7.2068,-3.82724 0,8.75 4.2149,7.35582 -12.75,-6.5 -33,-5.25 0,0 18,10 19,22 1,12 -1,-3 -23,0.75 0,0 17.41366,4.40534 19,16.25 3.75,27.99999 -8.5,-28.75001 -55,1.99999 z"
     id="path3812"
     inkscape:connector-curvature="0"
     sodipodi:nodetypes="ccccccccscscsc" />
  <path
     style="fill:#566680;fill-opacity:1;stroke:#000000;stroke-width:1px;stroke-linecap:butt;stroke-linejoin:miter;stroke-opacity:0"
     d="m 427.24999,179.61221 c 0,0 34,1.25 38.5,29.49999 0,0 17.75,-10.75 0.25,-30.99999 0,0 4,10.99999 1.75,15.49999 0,0 -17.5,-22.99999 -40.5,-13.99999 z"
     id="path3822"
     inkscape:connector-curvature="0"
     sodipodi:nodetypes="ccccc" />
  <path
     style="fill:#374559;fill-opacity:1;stroke:#000000;stroke-width:1px;stroke-linecap:butt;stroke-linejoin:miter;stroke-opacity:0"
     d="m 166.8772,172.19104 c 0,0 16.61701,-12.55115 100.93949,-14.49569 0,0 6.71751,-0.35355 20.85965,-11.84404 0,0 -10.07628,7.42462 -72.47845,8.66206 0,0 4.24264,-9.54594 17.5009,-15.73313 0,0 -10.07628,-0.88388 -18.208,0.88389 l 16.617,-12.37437 c 0,0 4.41942,4.06586 7.6014,2.65165 3.18198,-1.41421 -2.47487,-10.07627 38.00699,-23.5113 0,0 -69.65001,10.07627 -110.83898,65.76093 z"
     id="path3854"
     inkscape:connector-curvature="0" />
  <path
     style="fill:#374559;fill-opacity:1;stroke:#000000;stroke-width:1px;stroke-linecap:butt;stroke-linejoin:miter;stroke-opacity:0"
     d="m 177.5,251.8622 c 0,0 -6.01318,-43.62152 36.24999,-43 51,0.75 59.5,40 116.75,37 0,0 -49.25,-19.25 -70.25,-37.25 -21,-18 -51.5,-31.49999 -85.74999,-9.5 0,0 10.25,-29.24999 83.74999,-21.74999 0,0 -87.24999,-28 -94.24999,31.99999 0,0 -8,11.25 -15.5,-0.5 0,0 3.75,24 19,18.25 l 1.5,7.25 c 0,0 -10,7 -16.5,-7.75 0,0 3.5,29 19,14.75 0,0 0.75,6.5 6,10.5 z"
     id="path3852"
     inkscape:connector-curvature="0"
     sodipodi:nodetypes="csc" />
  <path
     style="fill:#566680;fill-opacity:1;stroke:#000000;stroke-width:1px;stroke-linecap:butt;stroke-linejoin:miter;stroke-opacity:0"
     d="m 176.75,248.1122 c 0,0 -20.25,-47.75 33.99999,-55 0,0 -65.49998,-6.75 -33.99999,55 z"
     id="path3824"
     inkscape:connector-curvature="0"
     sodipodi:nodetypes="ccc" />
  <path
     style="fill:#566680;fill-opacity:1;stroke:#000000;stroke-width:1px;stroke-linecap:butt;stroke-linejoin:miter;stroke-opacity:0"
     d="m 136.75,267.1122 c 9.5,-61.75 -0.5,-51.5 12.25,-77.5 -19.03116,10.71003 -26.79919,79.77666 -15.5,45 0,0 3,29 3.25,32.5 z"
     id="path3828"
     inkscape:connector-curvature="0"
     sodipodi:nodetypes="cccc" />
  <path
     style="fill:#566680;fill-opacity:1;stroke:#000000;stroke-width:1px;stroke-linecap:butt;stroke-linejoin:miter;stroke-opacity:0"
     d="m 240.24999,208.6122 c 39,11 36.25,32.25 87,36.5 -55,-21 -49,-32.5 -87,-36.5 z"
     id="path3830"
     inkscape:connector-curvature="0"
     sodipodi:nodetypes="ccc" />
  <path
     style="fill:#566680;fill-opacity:1;stroke:#000000;stroke-width:1px;stroke-linecap:butt;stroke-linejoin:miter;stroke-opacity:0"
     d="m 209.24999,156.61221 c 0,0 -25.24999,1.25 -34.99999,7 0,0 20.24999,-26.75 49.24999,-36.25 0,0 -25,18.75 -32.99999,27.5 0,0 10.24999,-1.25 18.74999,1.75 z"
     id="path3832"
     inkscape:connector-curvature="0" />
  <path
     style="fill:#374559;fill-opacity:1;stroke:#000000;stroke-width:1px;stroke-linecap:butt;stroke-linejoin:miter;stroke-opacity:0"
     d="m 493.24999,203.8622 c 0,0 13.25,3.5 20.5,15.5 0,0 4,0.25 -1.25,-12.5 0,0 15.75,3.75 7.75,-4.5 0,0 12.5,-0.5 25.25,16.5 0,0 -11.75,-39.49999 -43.5,-28.25 0,0 4.15213,2.00147 5.5,4.5 5.15339,9.55275 2.25,0.25 -14.25,8.75 z"
     id="path3842"
     inkscape:connector-curvature="0"
     sodipodi:nodetypes="ccccccsc" />
  <path
     style="fill:#374559;fill-opacity:1;stroke:#000000;stroke-width:1px;stroke-linecap:butt;stroke-linejoin:miter;stroke-opacity:0"
     d="m 506.24999,183.86221 c 0,0 45.5,-1 49.5,26.49999 0,0 5.5,-17.5 -11.5,-27.99999 0,0 7,-3.25 14.75,1.5 0,0 -22.5,-31.75 -40.75,-14 0,0 10.25,0 17,5.75 0,0 -15.75,-1.49999 -29,8.25 z"
     id="path3844"
     inkscape:connector-curvature="0" />
  <path
     style="fill:#566680;fill-opacity:1;stroke:#000000;stroke-width:1px;stroke-linecap:butt;stroke-linejoin:miter;stroke-opacity:0"
     d="m 518.99999,170.11221 c 0,0 14,-2 39.25,12.75 -27.74999,-31.49999 -39.25,-12.75 -39.25,-12.75 z"
     id="path3838"
     inkscape:connector-curvature="0" />
  <path
     style="fill:#374559;fill-opacity:1;stroke:#000000;stroke-width:1px;stroke-linecap:butt;stroke-linejoin:miter;stroke-opacity:0"
     d="m 484.24999,219.8622 c 0,0 19,-6 29.75,18.75 0,0 3.75,-6.5 -2,-14 9.25,3.5 6.75,8.5 24.25,13.5 0,0 -19,-37.5 -52,-18.25 z"
     id="path3840"
     inkscape:connector-curvature="0" />
  <path
     style="fill:#374559;fill-opacity:1;stroke:#000000;stroke-width:1px;stroke-linecap:butt;stroke-linejoin:miter;stroke-opacity:0"
     d="m 523.24999,277.3622 -4.25,33.5 c 0,0 -3.25,11.25 2.5,19 5.75,7.75 20.5,27.25 22.5,48 0,0 5.25,-12 -3.25,-32 l -4.5,-8.5 c 0,0 4.75,0.75 9.25,-0.75 0,0 -19,-5.75 -22.25,-59.25 z"
     id="path3846"
     inkscape:connector-curvature="0"
     sodipodi:nodetypes="ccsc" />
  <path
     style="fill:#374559;fill-opacity:1;stroke:#000000;stroke-width:1px;stroke-linecap:butt;stroke-linejoin:miter;stroke-opacity:0"
     d="m 547.24999,416.6122 c 0,0 -0.25,19.25 -0.75,21.75 0,0 4,-3.25 5,-7.75 0,0 6.5,1.75 5.25,-10 0,0 -1,-4 -4.75,2 0,0 0,-8.75 -4.75,-6 z"
     id="path3848"
     inkscape:connector-curvature="0" />
  <path
     style="fill:#374559;fill-opacity:1;stroke:#000000;stroke-width:1px;stroke-linecap:butt;stroke-linejoin:miter;stroke-opacity:0"
     d="m 567.49999,266.3622 c 0,0 6.75,26.25 1.75,80 0,0 22.49999,-78 3,-139.25 0,0 3.75,33.5 0.5,62.75 0,0 -2.25,-3 -5.25,-3.5 z"
     id="path3850"
     inkscape:connector-curvature="0"
     sodipodi:nodetypes="cc" />
  <path
     style="fill:#374559;fill-opacity:1;stroke:#000000;stroke-width:1px;stroke-linecap:butt;stroke-linejoin:miter;stroke-opacity:0"
     d="m 141.42134,339.24506 c 0,0 3.88909,13.78859 0.35356,39.59798 0,0 2.62597,-16.9678 8.94669,-22.50428 2.04148,-1.78819 4.4684,-2.38389 7.31676,-0.83024 0,0 4.94974,-21.92031 -2.82843,-40.30508 -0.46045,11.62625 -0.92089,19.84196 -1.7108,25.11082 -1.63622,10.91394 -4.68607,9.18381 -12.07778,-1.0692 z"
     id="path3102"
     inkscape:connector-curvature="0"
     sodipodi:nodetypes="ccsccsc" />
  <path
     style="fill:#566680;fill-opacity:1;stroke:#000000;stroke-width:1px;stroke-linecap:butt;stroke-linejoin:miter;stroke-opacity:0"
     d="m 291.99999,95.612207 c 33.75,8.000003 12.5,-2.5 53,-2 -20.5,-9.5 -26.5,1.25 -53,2 z"
     id="path3834"
     inkscape:connector-curvature="0"
     sodipodi:nodetypes="ccc" />
  <path
     style="fill:#566680;fill-opacity:1;stroke:#000000;stroke-width:1px;stroke-linecap:butt;stroke-linejoin:miter;stroke-opacity:0"
     d="m 501.74999,190.8622 c 0,0 24.5,3.25 40.25,20.5 -14,-32.75 -40.25,-20.5 -40.25,-20.5 z"
     id="path3836"
     inkscape:connector-curvature="0" />
</svg>
